<?xml version="1.0" standalone="no"?>
<!DOCTYPE svg PUBLIC "-//W3C//DTD SVG 20010904//EN"
 "http://www.w3.org/TR/2001/REC-SVG-20010904/DTD/svg10.dtd">
<svg version="1.0" xmlns="http://www.w3.org/2000/svg"
 width="180.000000pt" height="180.000000pt" viewBox="0 0 180.000000 180.000000"
 preserveAspectRatio="xMidYMid meet">
<metadata>
Created by potrace 1.14, written by Peter Selinger 2001-2017
</metadata>
<g transform="translate(0.000000,180.000000) scale(0.100000,-0.100000)"
fill="#000000" stroke="none">
<path d="M606 1555 c-54 -19 -83 -41 -113 -86 -25 -38 -28 -52 -33 -163 -8
-183 -22 -197 -195 -201 -103 -2 -119 -5 -159 -29 -94 -55 -131 -165 -87 -262
42 -92 105 -123 249 -124 168 0 192 -24 192 -193 0 -90 3 -110 25 -153 74
-149 285 -150 363 -1 55 107 14 225 -97 282 -25 12 -64 18 -147 20 -181 4
-188 12 -189 247 -2 255 0 258 255 258 230 0 247 -12 249 -188 1 -109 13 -157
50 -199 100 -114 286 -85 348 56 32 73 10 174 -49 227 -50 46 -88 57 -204 59
-170 4 -186 20 -190 190 -2 123 -9 147 -53 198 -56 63 -141 87 -215 62z"/>
<path d="M1066 1557 c-57 -14 -129 -88 -142 -147 -22 -102 20 -194 109 -236
44 -20 67 -24 150 -24 107 0 152 -13 176 -52 18 -28 23 -331 6 -380 -5 -17
-23 -40 -38 -52 -25 -19 -42 -21 -190 -21 -176 -1 -203 3 -238 41 -22 23 -24
37 -29 155 -6 123 -8 131 -36 171 -116 165 -369 92 -375 -108 -2 -88 38 -154
115 -190 43 -20 67 -24 149 -24 166 0 189 -23 193 -194 3 -144 32 -204 121
-246 76 -36 176 -17 234 43 44 46 59 95 59 205 0 168 21 189 195 193 117 2
148 11 198 58 43 39 61 80 63 141 3 85 -30 144 -103 187 -42 24 -56 27 -158
28 -175 3 -195 23 -195 195 0 61 -5 110 -14 131 -43 104 -140 152 -250 126z"/>
</g>
</svg>
